<?xml version="1.0" encoding="UTF-8"?><svg id="logo" xmlns="http://www.w3.org/2000/svg" viewBox="0 0 569.24 144"><defs><style>.cls-1{fill:#fff;}</style></defs><g id="_6"><rect class="cls-1" x="81" width="63" height="63"/><rect class="cls-1" x=".1" y="81" width="62.9" height="63"/><path class="cls-1" d="m114,72c0,23.16-18.84,42-42,42-1.01,0-2.01-.04-3-.1v-38.9H30.1c-.06-.99-.1-1.99-.1-3s.04-2.01.1-3c.08-1.01.19-2.01.33-3,.14-1.01.32-2.01.54-3,3.5-15.95,16.08-28.53,32.03-32.03.99-.22,1.99-.4,3-.54.99-.14,1.99-.25,3-.33.99-.06,1.99-.1,3-.1s2.01.04,3,.1v38.9h38.9c.06.99.1,1.99.1,3Z"/><path class="cls-1" d="m63,0v24.85c-19.27,3.66-34.49,18.88-38.15,38.15H0V0h63Z"/></g><g id="text"><path class="cls-1" d="m218.94,117h-9.8V39.25h-29.14v-9.05h68.08v9.05h-29.14v77.75Z"/><path class="cls-1" d="m260.36,117h-9.55V52.89h9.55v16.74c1.16-2.64,2.6-5.08,4.34-7.32,1.74-2.23,3.72-4.15,5.95-5.77,2.23-1.61,4.67-2.83,7.32-3.66,2.64-.83,5.5-1.2,8.56-1.12v10.29h-.74c-3.47,0-6.76.62-9.86,1.86-3.1,1.24-5.81,3.1-8.12,5.58-2.32,2.48-4.13,5.56-5.46,9.24-1.32,3.68-1.98,7.92-1.98,12.71v25.54Z"/><path class="cls-1" d="m298.18,38.88v-10.54h10.91v10.54h-10.91Zm.62,78.12V52.89h9.55v64.11h-9.55Z"/><path class="cls-1" d="m378.9,117v-12.9c-1.32,1.9-2.79,3.72-4.4,5.46-1.61,1.74-3.41,3.27-5.39,4.59-1.98,1.32-4.2,2.36-6.63,3.1-2.44.74-5.15,1.12-8.12,1.12-3.89,0-7.65-.74-11.28-2.23-3.64-1.49-6.9-3.66-9.8-6.51-2.89-2.85-5.21-6.34-6.94-10.48-1.74-4.13-2.6-8.84-2.6-14.14s.87-10,2.6-14.14c1.74-4.13,4.05-7.63,6.94-10.48,2.89-2.85,6.16-5.04,9.8-6.57,3.64-1.53,7.4-2.29,11.28-2.29,2.98,0,5.7.37,8.18,1.12,2.48.74,4.71,1.74,6.7,2.98,1.98,1.24,3.78,2.69,5.39,4.34,1.61,1.65,3.04,3.39,4.28,5.21V26.48h9.55v90.52h-9.55Zm-1.55-42.23c-1.28-3.04-3.02-5.63-5.21-7.77-2.19-2.14-4.67-3.8-7.44-5-2.77-1.19-5.64-1.79-8.62-1.79-3.14,0-6.08.56-8.8,1.67-2.73,1.11-5.11,2.71-7.13,4.81-2.03,2.1-3.64,4.69-4.84,7.77-1.2,3.08-1.8,6.56-1.8,10.43s.6,7.2,1.8,10.24c1.2,3.04,2.83,5.66,4.9,7.83,2.07,2.18,4.46,3.85,7.19,5,2.73,1.15,5.62,1.73,8.68,1.73s5.85-.59,8.62-1.79c2.77-1.19,5.25-2.86,7.44-5,2.19-2.14,3.92-4.75,5.21-7.83,1.28-3.08,1.92-6.48,1.92-10.18s-.64-7.07-1.92-10.12Z"/><path class="cls-1" d="m406.92,38.88v-10.54h10.91v10.54h-10.91Zm.62,78.12V52.89h9.55v64.11h-9.55Z"/><path class="cls-1" d="m496.51,97.84c-1.7,4.09-4.03,7.67-7.01,10.73-2.98,3.06-6.53,5.48-10.66,7.25-4.13,1.78-8.6,2.67-13.39,2.67s-9.22-.89-13.27-2.67c-4.05-1.78-7.56-4.17-10.54-7.19-2.98-3.02-5.29-6.55-6.94-10.6-1.65-4.05-2.48-8.35-2.48-12.9s.83-8.87,2.48-12.96c1.65-4.09,3.97-7.67,6.94-10.73,2.98-3.06,6.51-5.48,10.6-7.25,4.09-1.78,8.58-2.67,13.45-2.67s9.24.89,13.33,2.67c4.09,1.78,7.63,4.17,10.6,7.19,2.98,3.02,5.29,6.55,6.94,10.6,1.65,4.05,2.48,8.35,2.48,12.9s-.85,8.87-2.54,12.96Zm-9.05-22.54c-1.2-3.05-2.87-5.71-5.02-7.98-2.15-2.27-4.67-4.06-7.56-5.38-2.89-1.32-6.04-1.98-9.42-1.98s-6.66.64-9.55,1.92c-2.89,1.28-5.35,3.05-7.38,5.32-2.03,2.27-3.62,4.91-4.77,7.92-1.16,3.01-1.74,6.25-1.74,9.71s.6,6.72,1.8,9.77c1.2,3.05,2.85,5.69,4.96,7.92,2.11,2.23,4.61,4,7.5,5.32,2.89,1.32,6.03,1.98,9.42,1.98s6.65-.64,9.55-1.92c2.89-1.28,5.37-3.03,7.44-5.26,2.07-2.23,3.68-4.84,4.84-7.85,1.16-3.01,1.74-6.25,1.74-9.71s-.6-6.72-1.8-9.77Z"/><path class="cls-1" d="m522.74,117h-9.55V52.89h9.55v11.16c2.15-3.47,4.96-6.43,8.43-8.87,3.47-2.44,7.98-3.66,13.52-3.66,3.88,0,7.33.62,10.35,1.86,3.02,1.24,5.58,3,7.69,5.27,2.11,2.27,3.72,4.98,4.84,8.12,1.12,3.14,1.67,6.61,1.67,10.42v39.8h-9.55v-37.45c0-5.95-1.53-10.66-4.59-14.14-3.06-3.47-7.44-5.21-13.14-5.21-2.73,0-5.27.48-7.63,1.43-2.36.95-4.4,2.32-6.14,4.09-1.74,1.78-3.08,3.91-4.03,6.39-.95,2.48-1.43,5.21-1.43,8.18v36.7Z"/></g></svg>